<svg id="visual" viewBox="0 0 900 600" width="900" height="600" xmlns="http://www.w3.org/2000/svg" xmlns:xlink="http://www.w3.org/1999/xlink" version="1.1"><path d="M0 85L13.7 84C27.3 83 54.7 81 82 93C109.3 105 136.7 131 163.8 135C191 139 218 121 245.2 111C272.3 101 299.7 99 327 91C354.3 83 381.7 69 409 78C436.3 87 463.7 119 491 130C518.3 141 545.7 131 573 133C600.3 135 627.7 149 654.8 146C682 143 709 123 736.2 117C763.3 111 790.7 119 818 117C845.3 115 872.7 103 886.3 97L900 91L900 0L886.3 0C872.7 0 845.3 0 818 0C790.7 0 763.3 0 736.2 0C709 0 682 0 654.8 0C627.7 0 600.3 0 573 0C545.7 0 518.3 0 491 0C463.7 0 436.3 0 409 0C381.7 0 354.3 0 327 0C299.7 0 272.3 0 245.2 0C218 0 191 0 163.8 0C136.7 0 109.3 0 82 0C54.7 0 27.3 0 13.7 0L0 0Z" fill="#173758"></path><path d="M0 235L13.7 243C27.3 251 54.7 267 82 280C109.3 293 136.7 303 163.8 291C191 279 218 245 245.2 243C272.3 241 299.7 271 327 276C354.3 281 381.7 261 409 263C436.3 265 463.7 289 491 296C518.3 303 545.7 293 573 301C600.3 309 627.7 335 654.8 326C682 317 709 273 736.2 279C763.3 285 790.7 341 818 350C845.3 359 872.7 321 886.3 302L900 283L900 89L886.3 95C872.7 101 845.3 113 818 115C790.7 117 763.3 109 736.2 115C709 121 682 141 654.8 144C627.7 147 600.3 133 573 131C545.7 129 518.3 139 491 128C463.7 117 436.3 85 409 76C381.7 67 354.3 81 327 89C299.7 97 272.3 99 245.2 109C218 119 191 137 163.8 133C136.7 129 109.3 103 82 91C54.7 79 27.3 81 13.7 82L0 83Z" fill="#10263d"></path><path d="M0 307L13.7 311C27.3 315 54.7 323 82 333C109.3 343 136.7 355 163.8 345C191 335 218 303 245.2 308C272.3 313 299.7 355 327 367C354.3 379 381.7 361 409 365C436.3 369 463.7 395 491 404C518.3 413 545.7 405 573 403C600.3 401 627.7 405 654.8 389C682 373 709 337 736.2 342C763.3 347 790.7 393 818 400C845.3 407 872.7 375 886.3 359L900 343L900 281L886.3 300C872.7 319 845.3 357 818 348C790.7 339 763.3 283 736.2 277C709 271 682 315 654.8 324C627.7 333 600.3 307 573 299C545.7 291 518.3 301 491 294C463.7 287 436.3 263 409 261C381.7 259 354.3 279 327 274C299.7 269 272.3 239 245.2 241C218 243 191 277 163.8 289C136.7 301 109.3 291 82 278C54.7 265 27.3 249 13.7 241L0 233Z" fill="#081523"></path><path d="M0 565L13.7 558C27.3 551 54.7 537 82 531C109.3 525 136.7 527 163.8 532C191 537 218 545 245.2 547C272.3 549 299.7 545 327 536C354.3 527 381.7 513 409 512C436.3 511 463.7 523 491 530C518.3 537 545.7 539 573 539C600.3 539 627.7 537 654.8 539C682 541 709 547 736.2 545C763.3 543 790.7 533 818 532C845.3 531 872.7 539 886.3 543L900 547L900 341L886.3 357C872.7 373 845.3 405 818 398C790.7 391 763.3 345 736.2 340C709 335 682 371 654.8 387C627.7 403 600.3 399 573 401C545.7 403 518.3 411 491 402C463.7 393 436.3 367 409 363C381.7 359 354.3 377 327 365C299.7 353 272.3 311 245.2 306C218 301 191 333 163.8 343C136.7 353 109.3 341 82 331C54.7 321 27.3 313 13.7 309L0 305Z" fill="#08131f"></path><path d="M0 601L13.7 601C27.3 601 54.7 601 82 601C109.3 601 136.7 601 163.8 601C191 601 218 601 245.2 601C272.3 601 299.7 601 327 601C354.3 601 381.7 601 409 601C436.3 601 463.7 601 491 601C518.3 601 545.7 601 573 601C600.3 601 627.7 601 654.8 601C682 601 709 601 736.2 601C763.3 601 790.7 601 818 601C845.3 601 872.7 601 886.3 601L900 601L900 545L886.3 541C872.7 537 845.3 529 818 530C790.7 531 763.3 541 736.2 543C709 545 682 539 654.8 537C627.7 535 600.3 537 573 537C545.7 537 518.3 535 491 528C463.7 521 436.3 509 409 510C381.7 511 354.3 525 327 534C299.7 543 272.3 547 245.2 545C218 543 191 535 163.8 530C136.7 525 109.3 523 82 529C54.7 535 27.3 549 13.7 556L0 563Z" fill="#07111c"></path></svg>